<svg width="179" height="60" viewBox="0 0 179 60" fill="none" xmlns="http://www.w3.org/2000/svg">
<path d="M122.263 58.7963H108.135V34.4635H121.754C126.403 34.4635 129.199 36.6062 129.199 40.4559C129.199 43.325 127.601 45.4677 123.897 45.9035V46.1577C128.037 46.6299 130.071 48.8816 130.071 52.0775C130.071 56.254 127.275 58.7963 122.263 58.7963ZM112.021 37.9863V44.6687H121.21C123.933 44.6687 125.313 43.6155 125.313 41.3275C125.313 39.0395 124.042 37.9863 121.319 37.9863H112.021ZM112.021 47.901V55.2735H121.827C124.732 55.2735 126.149 54.1839 126.149 51.5327C126.149 48.9905 124.696 47.901 121.827 47.901H112.021Z" fill="white"/>
<path d="M83.6212 58.7963H79.2631L90.122 34.4635H95.6423L106.501 58.7963H102.071L99.2741 52.477H86.4176L83.6212 58.7963ZM91.2842 41.5454L87.9793 48.9542H97.7124L94.4075 41.5454L92.9911 38.0952H92.7006L91.2842 41.5454Z" fill="white"/>
<path d="M65.617 58.7963H61.6947V34.4635H81.052V37.9863H65.617V45.5403H80.5072V49.0268H65.617V58.7963Z" fill="white"/>
<path d="M179 24.9548H160.079V0.622025H164.001V21.432H179V24.9548Z" fill="white"/>
<path d="M135.382 24.9548H131.024L141.883 0.622025H147.404L158.262 24.9548H153.832L151.035 18.6355H138.179L135.382 24.9548ZM143.045 7.70395L139.741 15.1127H149.474L146.169 7.70395L144.752 4.25378H144.462L143.045 7.70395Z" fill="white"/>
<path d="M116.859 25.318C109.704 25.318 104.947 20.3788 104.947 12.7884C104.947 5.19802 110.067 0.258835 117.839 0.258835C124.74 0.258835 129.534 3.74532 129.534 9.37454V9.66508H125.212V9.37454C125.212 5.88805 122.779 3.99954 117.73 3.99954C111.883 3.99954 109.087 6.72336 109.087 12.7884C109.087 18.8534 111.847 21.5409 117.549 21.5409C123.36 21.5409 125.648 19.943 125.648 15.8391V15.5122H116.641V12.5342H129.534V24.9548H125.975V19.6887H125.72C124.703 23.2479 121.616 25.318 116.859 25.318Z" fill="white"/>
<path d="M102.618 24.9548H83.1518V0.622025H102.618V4.14483H87.0741V10.9725H102.073V14.459H87.0741V21.432H102.618V24.9548Z" fill="white"/>
<path d="M80.6162 24.9548H61.6947V0.622025H65.617V21.432H80.6162V24.9548Z" fill="white"/>
<path d="M16.7838 42.3152L11.7941 47.8233L11.2757 47.3049L16.7838 42.3152Z" fill="url(#paint0_linear_73_63)"/>
<path fill-rule="evenodd" clip-rule="evenodd" d="M0.518616 47.2896L16.7837 42.3152L11.3042 47.3316L0.518616 47.2896Z" fill="url(#paint1_linear_73_63)"/>
<path fill-rule="evenodd" clip-rule="evenodd" d="M11.8227 58.5934L16.8486 42.2502L11.7807 47.8078L11.8227 58.5934Z" fill="url(#paint2_linear_73_63)"/>
<path fill-rule="evenodd" clip-rule="evenodd" d="M42.6401 42.9525C42.7099 42.9525 42.7769 42.9813 42.8262 43.0327L47.1016 47.4805C47.2674 47.653 47.1499 47.9479 46.9155 47.9479H14.5741C14.3397 47.9479 14.2222 47.653 14.388 47.4805L18.6634 43.0327C18.7127 42.9813 18.7797 42.9525 18.8495 42.9525H42.6401Z" fill="url(#paint3_linear_73_63)"/>
<path fill-rule="evenodd" clip-rule="evenodd" d="M16.0766 4.43368C16.1284 4.4829 16.1575 4.54966 16.1575 4.61927V40.315C16.1575 40.3847 16.1284 40.4514 16.0766 40.5006L11.5915 44.7641C11.4175 44.9294 11.1201 44.8123 11.1201 44.5785V0.355809C11.1201 0.121979 11.4175 0.00487654 11.5915 0.170219L16.0766 4.43368Z" fill="url(#paint4_linear_73_63)"/>
<path d="M11.1744 47.2895H0.648072C0.290185 47.2895 6.10352e-05 47.5796 6.10352e-05 47.9375V58.4638C6.10352e-05 58.8217 0.290186 59.1118 0.648073 59.1118H11.1744C11.5323 59.1118 11.8224 58.8217 11.8224 58.4638V47.9375C11.8224 47.5796 11.5323 47.2895 11.1744 47.2895Z" fill="#92B2BC"/>
<path fill-rule="evenodd" clip-rule="evenodd" d="M46.642 47.2895C46.9999 47.2895 47.29 47.5796 47.29 47.9375V58.4639C47.29 58.8218 46.9999 59.1119 46.642 59.1119H26.0096C19.6978 59.1119 14.5411 54.1655 14.2047 47.9375C14.1854 47.5801 14.4774 47.2895 14.8353 47.2895L46.642 47.2895Z" fill="#92B2BC"/>
<path fill-rule="evenodd" clip-rule="evenodd" d="M11.8225 0.648014C11.8225 0.290126 11.5324 -2.71182e-06 11.1745 -2.71182e-06H0.648125C0.290239 -2.71182e-06 0.000114057 0.290123 0.000114057 0.64801V33.1028C0.000114057 39.4148 4.94653 44.5714 11.1745 44.9078C11.5319 44.9271 11.8225 44.6351 11.8225 44.2773L11.8225 0.648014Z" fill="#92B2BC"/>
<defs>
<linearGradient id="paint0_linear_73_63" x1="14.0297" y1="47.8233" x2="14.0297" y2="42.3152" gradientUnits="userSpaceOnUse">
<stop stop-color="#6D96A3"/>
<stop offset="1" stop-color="#0F2F41"/>
</linearGradient>
<linearGradient id="paint1_linear_73_63" x1="6.6099" y1="47.3049" x2="16.7189" y2="42.38" gradientUnits="userSpaceOnUse">
<stop stop-color="#6D96A3"/>
<stop offset="1" stop-color="#0F2F41"/>
</linearGradient>
<linearGradient id="paint2_linear_73_63" x1="11.7293" y1="52.6184" x2="16.719" y2="42.4446" gradientUnits="userSpaceOnUse">
<stop stop-color="#6D96A3"/>
<stop offset="1" stop-color="#0F2F41"/>
</linearGradient>
<linearGradient id="paint3_linear_73_63" x1="30.7448" y1="47.9479" x2="30.7448" y2="42.9525" gradientUnits="userSpaceOnUse">
<stop stop-color="#6D96A3"/>
<stop offset="1" stop-color="#0F2F41"/>
</linearGradient>
<linearGradient id="paint4_linear_73_63" x1="11.1201" y1="22.4672" x2="16.1575" y2="22.4672" gradientUnits="userSpaceOnUse">
<stop stop-color="#6D96A3"/>
<stop offset="1" stop-color="#0F2F41"/>
</linearGradient>
</defs>
</svg>
